<svg width="299" height="34" viewBox="0 0 299 34" fill="none" xmlns="http://www.w3.org/2000/svg">
<path d="M13.5739 33.45C10.9339 33.45 8.57891 32.865 6.50891 31.695C4.46891 30.525 2.87891 28.8 1.73891 26.52C0.598906 24.24 0.0289063 21.465 0.0289063 18.195C0.0289063 14.985 0.628906 12.24 1.82891 9.96C3.02891 7.68 4.73891 5.925 6.95891 4.695C9.20891 3.465 11.8489 2.85 14.8789 2.85C18.2389 2.85 20.9539 3.465 23.0239 4.695C25.0939 5.895 26.6989 7.815 27.8389 10.455L20.6839 13.29C20.2939 11.76 19.6039 10.65 18.6139 9.96C17.6239 9.27 16.3939 8.925 14.9239 8.925C13.4539 8.925 12.1939 9.285 11.1439 10.005C10.0939 10.695 9.29891 11.73 8.75891 13.11C8.21891 14.46 7.94891 16.14 7.94891 18.15C7.94891 20.25 8.21891 22.005 8.75891 23.415C9.32891 24.825 10.1539 25.875 11.2339 26.565C12.3439 27.225 13.7089 27.555 15.3289 27.555C16.1989 27.555 16.9939 27.45 17.7139 27.24C18.4339 27.03 19.0639 26.73 19.6039 26.34C20.1439 25.92 20.5639 25.41 20.8639 24.81C21.1639 24.18 21.3139 23.445 21.3139 22.605V22.155H14.5189V16.98H27.8839V33H22.6189L22.0339 26.025L23.2939 27.105C22.6639 29.145 21.5239 30.72 19.8739 31.83C18.2539 32.91 16.1539 33.45 13.5739 33.45ZM44.0684 33.45C40.8884 33.45 38.2334 32.835 36.1034 31.605C34.0034 30.345 32.5484 28.515 31.7384 26.115L38.8484 23.055C38.9984 24.135 39.2684 25.005 39.6584 25.665C40.0784 26.295 40.6334 26.76 41.3234 27.06C42.0134 27.33 42.8234 27.465 43.7534 27.465C44.5934 27.465 45.2984 27.33 45.8684 27.06C46.4684 26.76 46.9334 26.34 47.2634 25.8C47.5934 25.26 47.7584 24.615 47.7584 23.865C47.7584 23.085 47.5934 22.455 47.2634 21.975C46.9634 21.495 46.5134 21.15 45.9134 20.94C45.3434 20.73 44.6384 20.625 43.7984 20.625C43.4084 20.625 43.0484 20.64 42.7184 20.67C42.3884 20.67 42.0134 20.7 41.5934 20.76V15.72C41.8334 15.75 42.0734 15.78 42.3134 15.81C42.5534 15.81 42.8384 15.81 43.1684 15.81C44.5784 15.81 45.5834 15.525 46.1834 14.955C46.8134 14.355 47.1284 13.425 47.1284 12.165C47.1284 11.085 46.8134 10.26 46.1834 9.69C45.5834 9.12 44.7284 8.835 43.6184 8.835C42.4484 8.835 41.4884 9.15 40.7384 9.78C39.9884 10.38 39.5084 11.415 39.2984 12.885L32.5034 10.545C32.8334 8.895 33.5384 7.5 34.6184 6.36C35.6984 5.22 37.0484 4.35 38.6684 3.75C40.3184 3.15 42.1334 2.85 44.1134 2.85C46.3934 2.85 48.3134 3.18 49.8734 3.84C51.4334 4.5 52.6184 5.445 53.4284 6.675C54.2384 7.905 54.6434 9.345 54.6434 10.995C54.6434 12.285 54.4334 13.365 54.0134 14.235C53.6234 15.105 53.1134 15.81 52.4834 16.35C51.8834 16.89 51.2684 17.295 50.6384 17.565C50.0084 17.805 49.4834 17.955 49.0634 18.015V18.15C49.6034 18.15 50.2184 18.255 50.9084 18.465C51.5984 18.675 52.2734 19.02 52.9334 19.5C53.5934 19.95 54.1334 20.58 54.5534 21.39C55.0034 22.2 55.2284 23.205 55.2284 24.405C55.2284 26.265 54.7334 27.87 53.7434 29.22C52.7834 30.57 51.4634 31.62 49.7834 32.37C48.1034 33.09 46.1984 33.45 44.0684 33.45ZM99.3485 33H91.3835L89.3135 26.295H79.1435L77.0285 33H69.2435L79.6835 3.3H88.9535L99.3485 33ZM80.5835 21.03H87.8735L84.2285 9.015L80.5835 21.03ZM102.263 33V10.5H109.013L109.328 15.36C109.898 13.68 110.738 12.375 111.848 11.445C112.988 10.515 114.428 10.05 116.168 10.05C116.738 10.05 117.218 10.095 117.608 10.185C118.028 10.275 118.358 10.395 118.598 10.545L117.833 16.845C117.533 16.725 117.143 16.635 116.663 16.575C116.213 16.485 115.658 16.44 114.998 16.44C114.098 16.44 113.258 16.635 112.478 17.025C111.698 17.415 111.068 18 110.588 18.78C110.138 19.53 109.913 20.49 109.913 21.66V33H102.263ZM132 10.05C134.28 10.05 136.17 10.38 137.67 11.04C139.2 11.67 140.385 12.525 141.225 13.605C142.095 14.655 142.635 15.795 142.845 17.025L135.78 19.365C135.57 18.075 135.18 17.115 134.61 16.485C134.07 15.825 133.275 15.495 132.225 15.495C131.265 15.495 130.455 15.72 129.795 16.17C129.165 16.59 128.685 17.28 128.355 18.24C128.025 19.17 127.86 20.37 127.86 21.84C127.86 23.31 128.04 24.51 128.4 25.44C128.76 26.34 129.27 27 129.93 27.42C130.59 27.81 131.37 28.005 132.27 28.005C133.02 28.005 133.635 27.87 134.115 27.6C134.625 27.3 135.045 26.88 135.375 26.34C135.705 25.8 135.915 25.14 136.005 24.36L142.89 26.565C142.68 27.885 142.11 29.07 141.18 30.12C140.28 31.14 139.08 31.95 137.58 32.55C136.08 33.15 134.325 33.45 132.315 33.45C129.855 33.45 127.71 33 125.88 32.1C124.05 31.17 122.64 29.835 121.65 28.095C120.66 26.325 120.165 24.21 120.165 21.75C120.165 19.29 120.66 17.19 121.65 15.45C122.64 13.68 124.02 12.345 125.79 11.445C127.59 10.515 129.66 10.05 132 10.05ZM146.867 33V0.959999H154.517V14.595C155.177 13.095 156.122 11.97 157.352 11.22C158.582 10.44 160.007 10.05 161.627 10.05C163.187 10.05 164.537 10.35 165.677 10.95C166.847 11.55 167.762 12.435 168.422 13.605C169.082 14.775 169.412 16.245 169.412 18.015V33H161.762V20.13C161.762 18.51 161.462 17.4 160.862 16.8C160.292 16.17 159.527 15.855 158.567 15.855C157.847 15.855 157.172 16.035 156.542 16.395C155.912 16.755 155.417 17.325 155.057 18.105C154.697 18.885 154.517 19.905 154.517 21.165V33H146.867ZM178.597 7.89C177.037 7.89 175.897 7.605 175.177 7.035C174.487 6.435 174.142 5.505 174.142 4.245C174.142 2.955 174.487 2.025 175.177 1.455C175.897 0.854999 177.037 0.554999 178.597 0.554999C180.127 0.554999 181.252 0.854999 181.972 1.455C182.692 2.025 183.052 2.955 183.052 4.245C183.052 5.505 182.692 6.435 181.972 7.035C181.252 7.605 180.127 7.89 178.597 7.89ZM182.422 10.5V33H174.772V10.5H182.422ZM197.273 3.345V24.99C197.273 26.07 197.528 26.85 198.038 27.33C198.578 27.78 199.313 28.005 200.243 28.005C200.963 28.005 201.578 27.93 202.088 27.78C202.628 27.6 203.108 27.345 203.528 27.015L204.338 31.74C203.588 32.28 202.643 32.7 201.503 33C200.363 33.3 199.193 33.45 197.993 33.45C196.283 33.45 194.798 33.21 193.538 32.73C192.308 32.25 191.348 31.485 190.658 30.435C189.998 29.385 189.653 27.99 189.623 26.25V5.46L197.273 3.345ZM203.978 10.5V15.945H185.753V10.5H203.978ZM218.492 33.45C216.002 33.45 213.842 32.985 212.012 32.055C210.212 31.125 208.817 29.79 207.827 28.05C206.837 26.31 206.342 24.21 206.342 21.75C206.342 19.29 206.837 17.19 207.827 15.45C208.817 13.71 210.197 12.375 211.967 11.445C213.767 10.515 215.822 10.05 218.132 10.05C220.502 10.05 222.512 10.515 224.162 11.445C225.842 12.345 227.117 13.605 227.987 15.225C228.857 16.815 229.292 18.645 229.292 20.715C229.292 21.255 229.277 21.795 229.247 22.335C229.217 22.875 229.172 23.325 229.112 23.685H211.292V19.59H225.737L222.092 20.985C222.092 19.185 221.762 17.805 221.102 16.845C220.472 15.885 219.482 15.405 218.132 15.405C217.172 15.405 216.347 15.63 215.657 16.08C214.997 16.53 214.487 17.235 214.127 18.195C213.797 19.155 213.632 20.385 213.632 21.885C213.632 23.355 213.827 24.555 214.217 25.485C214.607 26.385 215.162 27.045 215.882 27.465C216.602 27.855 217.472 28.05 218.492 28.05C219.632 28.05 220.532 27.825 221.192 27.375C221.882 26.925 222.392 26.295 222.722 25.485L228.842 27.51C228.422 28.8 227.687 29.895 226.637 30.795C225.617 31.665 224.387 32.325 222.947 32.775C221.537 33.225 220.052 33.45 218.492 33.45ZM244.236 10.05C246.516 10.05 248.406 10.38 249.906 11.04C251.436 11.67 252.621 12.525 253.461 13.605C254.331 14.655 254.871 15.795 255.081 17.025L248.016 19.365C247.806 18.075 247.416 17.115 246.846 16.485C246.306 15.825 245.511 15.495 244.461 15.495C243.501 15.495 242.691 15.72 242.031 16.17C241.401 16.59 240.921 17.28 240.591 18.24C240.261 19.17 240.096 20.37 240.096 21.84C240.096 23.31 240.276 24.51 240.636 25.44C240.996 26.34 241.506 27 242.166 27.42C242.826 27.81 243.606 28.005 244.506 28.005C245.256 28.005 245.871 27.87 246.351 27.6C246.861 27.3 247.281 26.88 247.611 26.34C247.941 25.8 248.151 25.14 248.241 24.36L255.126 26.565C254.916 27.885 254.346 29.07 253.416 30.12C252.516 31.14 251.316 31.95 249.816 32.55C248.316 33.15 246.561 33.45 244.551 33.45C242.091 33.45 239.946 33 238.116 32.1C236.286 31.17 234.876 29.835 233.886 28.095C232.896 26.325 232.401 24.21 232.401 21.75C232.401 19.29 232.896 17.19 233.886 15.45C234.876 13.68 236.256 12.345 238.026 11.445C239.826 10.515 241.896 10.05 244.236 10.05ZM268.508 3.345V24.99C268.508 26.07 268.763 26.85 269.273 27.33C269.813 27.78 270.548 28.005 271.478 28.005C272.198 28.005 272.813 27.93 273.323 27.78C273.863 27.6 274.343 27.345 274.763 27.015L275.573 31.74C274.823 32.28 273.878 32.7 272.738 33C271.598 33.3 270.428 33.45 269.228 33.45C267.518 33.45 266.033 33.21 264.773 32.73C263.543 32.25 262.583 31.485 261.893 30.435C261.233 29.385 260.888 27.99 260.858 26.25V5.46L268.508 3.345ZM275.213 10.5V15.945H256.988V10.5H275.213ZM288.197 33.45C285.947 33.45 283.847 33.09 281.897 32.37C279.977 31.62 278.387 30.555 277.127 29.175L280.727 24.945C281.477 25.905 282.467 26.715 283.697 27.375C284.957 28.005 286.352 28.32 287.882 28.32C288.812 28.32 289.577 28.185 290.177 27.915C290.777 27.645 291.077 27.225 291.077 26.655C291.077 26.235 290.927 25.905 290.627 25.665C290.327 25.395 289.727 25.17 288.827 24.99L285.677 24.36C282.857 23.79 280.847 22.95 279.647 21.84C278.477 20.7 277.892 19.215 277.892 17.385C277.892 16.155 278.267 14.985 279.017 13.875C279.767 12.735 280.922 11.82 282.482 11.13C284.042 10.41 286.037 10.05 288.467 10.05C290.747 10.05 292.757 10.38 294.497 11.04C296.237 11.7 297.617 12.66 298.637 13.92L294.992 18.06C294.272 17.16 293.342 16.455 292.202 15.945C291.062 15.435 289.922 15.18 288.782 15.18C288.062 15.18 287.447 15.255 286.937 15.405C286.457 15.525 286.097 15.705 285.857 15.945C285.617 16.185 285.497 16.485 285.497 16.845C285.497 17.235 285.677 17.58 286.037 17.88C286.427 18.15 287.132 18.39 288.152 18.6L292.247 19.41C294.557 19.83 296.222 20.595 297.242 21.705C298.262 22.815 298.772 24.15 298.772 25.71C298.772 27.18 298.382 28.5 297.602 29.67C296.822 30.84 295.652 31.77 294.092 32.46C292.532 33.12 290.567 33.45 288.197 33.45Z" fill="#131313"/>
</svg>
